<?xml version="1.0" encoding="UTF-8"?><svg id="Livello_2" xmlns="http://www.w3.org/2000/svg" viewBox="0 0 41.32 33.57"><defs><style>.cls-1{fill:#232323;}</style></defs><g id="Livello_1-2"><path class="cls-1" d="m32.31,17.59c0-1.1.9-1.99,2.01-1.99s2.01.89,2.01,1.99-.9,2-2.01,2-2.01-.9-2.01-2m2.01,4.2c2.33,0,4.22-1.88,4.22-4.2s-1.89-4.19-4.22-4.19-4.22,1.88-4.22,4.19,1.89,4.2,4.22,4.2m-3.82,6.76c0,.73-.39,1.04-1.11,1.04h-1.76v-2.05h1.76c.72,0,1.11.31,1.11,1.01m.45,1.6v-.02c.81-.33,1.16-.97,1.16-1.82,0-1.1-.83-2.01-2.14-2.01h-3.94v7.27h1.6v-2.84h1.61c.81,0,1.1.34,1.22,1.1.08.58.06,1.28.26,1.74h1.61c-.29-.41-.28-1.26-.31-1.72-.05-.73-.28-1.5-1.06-1.7m-10.16.61l.95-2.67h.02l.92,2.67h-1.89Zm-.99,2.81l.57-1.62h2.73l.55,1.62h1.67l-2.73-7.27h-1.65l-2.77,7.27h1.63Zm-1.34-7.27h-5.14v7.27h1.61v-3h3.06v-1.24h-3.06v-1.68h3.53v-1.34Zm-9.71,4.33h2.96v-1.39h-2.96v1.39Zm-6.17-4.33H.98v7.27h1.61v-2.95h2.96v2.95h1.61v-7.27h-1.61v2.93h-2.96v-2.93Zm10.52-14.25c0-1.59-1.3-2.89-2.9-2.89s-2.9,1.3-2.9,2.89,1.3,2.9,2.9,2.9,2.9-1.3,2.9-2.9m2.87,0c0,3.19-2.6,5.78-5.81,5.78s-5.81-2.59-5.81-5.78,2.6-5.77,5.81-5.77,5.81,2.58,5.81,5.77m.06-7.17c-.26-.2-.51-.39-.79-.57l.05-1.04c-.61-.35-1.27-.65-1.96-.87l-.74.74c-.31-.08-.63-.15-.95-.2l-.38-.98c-.7-.08-1.42-.08-2.14,0l-.38.98c-.32.05-.63.11-.95.2l-.75-.74c-.67.22-1.33.51-1.95.87l.06,1.05c-.27.17-.53.36-.79.57l-.99-.37c-.53.47-1,1-1.43,1.58l.48.93c-.17.27-.34.55-.49.84l-1.05.06c-.29.64-.52,1.32-.66,2.02l.81.66c-.04.32-.08.64-.1.96l-.94.48c0,.71.08,1.42.23,2.12l1.02.27c.09.31.18.62.3.92l-.67.82c.29.64.65,1.26,1.07,1.84l1.04-.16c.21.25.42.49.65.72l-.27,1.01c.53.47,1.11.89,1.73,1.25l.89-.57c.28.15.58.29.89.4l.17,1.03c.67.22,1.37.37,2.09.45l.58-.88c.32.02.65.02.98,0l.58.88c.7-.08,1.41-.23,2.09-.45l.16-1.03c.3-.11.6-.25.89-.4l.88.57c.61-.35,1.2-.77,1.74-1.25l-.27-1c.22-.23.44-.47.65-.73l1.04.16c.41-.57.78-1.19,1.07-1.85l-.66-.82c.11-.29.21-.6.29-.92l1.02-.27c.15-.69.22-1.4.22-2.12l-.94-.48c-.01-.32-.04-.64-.1-.96l.82-.66c-.14-.69-.37-1.37-.65-2.03l-1.06-.06c-.15-.29-.31-.56-.49-.84l.48-.93c-.42-.57-.9-1.1-1.43-1.58l-.98.37Zm4.12-1.46c-1.9.12-2.86-1.52-2.9-1.59-.12-.21-.4-.29-.61-.17-.22.12-.29.39-.17.6.05.09,1.26,2.19,3.74,2.04.25-.02.43-.23.42-.47-.01-.25-.23-.43-.47-.42m21.13,12.31h0V2.69c0-.65-.53-1.17-1.18-1.17h-1.2v5.12c0,.25-.2.44-.45.44s-.45-.2-.45-.44V1.52h-1.93v5.12c0,.25-.2.44-.45.44s-.45-.2-.45-.44V1.52h-1.93v5.12c0,.25-.2.44-.45.44s-.45-.2-.45-.44V1.52h-1.93v5.12c0,.25-.2.44-.45.44s-.45-.2-.45-.44V1.52h-4.03c-.65,0-1.17.52-1.17,1.17v1.75l-1.6-3.1.97-.5c.22-.11.31-.38.2-.6-.11-.22-.38-.31-.6-.19l-2.75,1.41c-.22.11-.31.38-.19.6.11.22.38.31.6.19l.97-.5,1.89,3.66h-5.07s0,0,0,0c.04.05.08.1.12.15l.32.44s-.38.73-.5.98c0,0,0,.01,0,.01.28.02,1.13.06,1.13.06l.22.5c.33.74.57,1.48.72,2.21l.11.53s-.65.52-.87.69c.26.13,1.01.5,1.01.5v.55c0,.78-.08,1.55-.25,2.3l-.12.53s-.81.22-1.08.29c.18.22.71.87.71.87l-.23.5c-.06.12-.12.24-.12.37h9.55c.28-2.37,2.12-4.18,4.74-4.18s4.57,1.69,4.91,4.18h.97c.65,0,1.18-.52,1.18-1.17m-1.47,17.84h1.51v-7.27h-2.26l-1.62,5h-.02l-1.71-5h-2.26v7.27h1.5v-5.1h.02l1.79,5.1h1.24l1.79-5.15h.02v5.15Z"/></g></svg>